# xmcd
#
# Track frame offsets:
#	150
#	12644
#	24122
#	39107
#	53164
#	66167
#	77471
#	89410
#	100531
#	116516
#	127582
#	140775
#	154354
#	166589
#	177966
#
# Disc length: 2535 seconds
#
# Revision: 1
# Processed by: cddbd v1.5.1PL2 Copyright (c) Steve Scherf et al.
# Submitted via: audiograbber 1.83.01
#
DISCID=ad09e50f
DTITLE=Arnold. Eddy - CB90120
DYEAR=1900
DGENRE=Karaoke
TTITLE0=Cattle Call
TTITLE1=You Don't Know Me
TTITLE2=Wagon Wheels
TTITLE3=Make The World Go Away
TTITLE4=I Want To Go With You
TTITLE5=What's He Doing In My World
TTITLE6=Bouquet Of Roses
TTITLE7=Anytime
TTITLE8=Tennessee Stud
TTITLE9=Last Word In Lonesome Is Me
TTITLE10=Somebody Like Me
TTITLE11=Lonely Again
TTITLE12=Turn The World Around
TTITLE13=Here Comes Heaven
TTITLE14=That Do Make It Nice
EXTD=
EXTT0=
EXTT1=
EXTT2=
EXTT3=
EXTT4=
EXTT5=
EXTT6=
EXTT7=
EXTT8=
EXTT9=
EXTT10=
EXTT11=
EXTT12=
EXTT13=
EXTT14=
PLAYORDER=
